<!-- Generated by IcoMoon.io -->
<svg version="1.1" xmlns="http://www.w3.org/2000/svg" width="1024" height="1024" viewBox="0 0 1024 1024">
<title></title>
<g id="icomoon-ignore">
</g>
<path d="M512 177.809c8.821 0 15.971 7.151 15.971 15.971v0l-0.008 303.341h303.356c8.415 0.003 15.309 6.513 15.922 14.772l0.003 0.053 0.038 1.146c0 8.821-7.151 15.971-15.971 15.971v0l-303.349-0.008v303.356c0.005 0.147 0.008 0.32 0.008 0.494 0 8.821-7.151 15.971-15.971 15.971s-15.971-7.151-15.971-15.971c0-0.174 0.003-0.347 0.008-0.519l-0.001 0.025-0.008-303.356h-303.349c-8.415-0.003-15.309-6.513-15.922-14.772l-0.003-0.053-0.038-1.146c0.009-8.814 7.156-15.956 15.971-15.956l303.341-0.008v-303.349c0-8.821 7.151-15.971 15.971-15.971v0z"></path>
</svg>
