<?xml version="1.0" encoding="utf-8"?><svg viewBox="0 0 1024 1024" xmlns="http://www.w3.org/2000/svg" xmlns:xlink="http://www.w3.org/1999/xlink"><style>:root>svg{display:none}:root>svg:target{display:block}</style><svg viewBox="0 0 1024 1024" id="account" xmlns="http://www.w3.org/2000/svg"><path d="M485.452 121.363c111.698.017 202.242 90.57 202.242 202.271 0 56.552-23.209 107.684-60.62 144.391l-.032.031c117.471 40.239 210.769 124.79 261.641 233.204l1.149 2.726c2.355 4.976 3.73 10.811 3.73 16.967 0 15.626-8.86 29.184-21.831 35.922l-.225.106c-111.873 58.339-244.321 92.56-384.761 92.56l-1.364-.001h.07c-136.007 0-267.525-32.04-386.056-92.6-13.187-6.847-22.041-20.4-22.041-36.021a40.295 40.295 0 0 1 3.819-17.181l-.104.247c52.042-111.125 145.332-195.668 259.659-234.993l3.133-.937c-37.443-36.738-60.652-87.87-60.652-144.422 0-111.701 90.543-202.255 202.241-202.271h.002zm0 404.543h-.148c-131.852 0-247.332 70.096-311.21 175.055l-.91 1.609c91.518 41.736 198.496 66.063 311.155 66.063l1.173-.001h-.061c109.146 0 214.975-22.736 312.226-66.062C732.9 596.002 617.426 525.906 485.581 525.906h-.137.008zm0-323.635c-67.026 0-121.363 54.336-121.363 121.363s54.336 121.363 121.363 121.363c67.026 0 121.363-54.336 121.363-121.363s-54.336-121.363-121.363-121.363z"/></svg><svg viewBox="0 0 1024 1024" id="account" xmlns="http://www.w3.org/2000/svg"><path d="M485.452 121.363c111.698.017 202.242 90.57 202.242 202.271 0 56.552-23.209 107.684-60.62 144.391l-.032.031c117.471 40.239 210.769 124.79 261.641 233.204l1.149 2.726c2.355 4.976 3.73 10.811 3.73 16.967 0 15.626-8.86 29.184-21.831 35.922l-.225.106c-111.873 58.339-244.321 92.56-384.761 92.56l-1.364-.001h.07c-136.007 0-267.525-32.04-386.056-92.6-13.187-6.847-22.041-20.4-22.041-36.021a40.295 40.295 0 0 1 3.819-17.181l-.104.247c52.042-111.125 145.332-195.668 259.659-234.993l3.133-.937c-37.443-36.738-60.652-87.87-60.652-144.422 0-111.701 90.543-202.255 202.241-202.271h.002zm0 404.543h-.148c-131.852 0-247.332 70.096-311.21 175.055l-.91 1.609c91.518 41.736 198.496 66.063 311.155 66.063l1.173-.001h-.061c109.146 0 214.975-22.736 312.226-66.062C732.9 596.002 617.426 525.906 485.581 525.906h-.137.008zm0-323.635c-67.026 0-121.363 54.336-121.363 121.363s54.336 121.363 121.363 121.363c67.026 0 121.363-54.336 121.363-121.363s-54.336-121.363-121.363-121.363z"/></svg><svg viewBox="0 0 1024 1024" id="account" xmlns="http://www.w3.org/2000/svg"><path d="M485.452 121.363c111.698.017 202.242 90.57 202.242 202.271 0 56.552-23.209 107.684-60.62 144.391l-.032.031c117.471 40.239 210.769 124.79 261.641 233.204l1.149 2.726c2.355 4.976 3.73 10.811 3.73 16.967 0 15.626-8.86 29.184-21.831 35.922l-.225.106c-111.873 58.339-244.321 92.56-384.761 92.56l-1.364-.001h.07c-136.007 0-267.525-32.04-386.056-92.6-13.187-6.847-22.041-20.4-22.041-36.021a40.295 40.295 0 0 1 3.819-17.181l-.104.247c52.042-111.125 145.332-195.668 259.659-234.993l3.133-.937c-37.443-36.738-60.652-87.87-60.652-144.422 0-111.701 90.543-202.255 202.241-202.271h.002zm0 404.543h-.148c-131.852 0-247.332 70.096-311.21 175.055l-.91 1.609c91.518 41.736 198.496 66.063 311.155 66.063l1.173-.001h-.061c109.146 0 214.975-22.736 312.226-66.062C732.9 596.002 617.426 525.906 485.581 525.906h-.137.008zm0-323.635c-67.026 0-121.363 54.336-121.363 121.363s54.336 121.363 121.363 121.363c67.026 0 121.363-54.336 121.363-121.363s-54.336-121.363-121.363-121.363z"/></svg><svg viewBox="0 0 1024 1024" id="account" xmlns="http://www.w3.org/2000/svg"><path d="M485.452 121.363c111.698.017 202.242 90.57 202.242 202.271 0 56.552-23.209 107.684-60.62 144.391l-.032.031c117.471 40.239 210.769 124.79 261.641 233.204l1.149 2.726c2.355 4.976 3.73 10.811 3.73 16.967 0 15.626-8.86 29.184-21.831 35.922l-.225.106c-111.873 58.339-244.321 92.56-384.761 92.56l-1.364-.001h.07c-136.007 0-267.525-32.04-386.056-92.6-13.187-6.847-22.041-20.4-22.041-36.021a40.295 40.295 0 0 1 3.819-17.181l-.104.247c52.042-111.125 145.332-195.668 259.659-234.993l3.133-.937c-37.443-36.738-60.652-87.87-60.652-144.422 0-111.701 90.543-202.255 202.241-202.271h.002zm0 404.543h-.148c-131.852 0-247.332 70.096-311.21 175.055l-.91 1.609c91.518 41.736 198.496 66.063 311.155 66.063l1.173-.001h-.061c109.146 0 214.975-22.736 312.226-66.062C732.9 596.002 617.426 525.906 485.581 525.906h-.137.008zm0-323.635c-67.026 0-121.363 54.336-121.363 121.363s54.336 121.363 121.363 121.363c67.026 0 121.363-54.336 121.363-121.363s-54.336-121.363-121.363-121.363z"/></svg><svg viewBox="0 0 1024 1024" id="account" xmlns="http://www.w3.org/2000/svg"><path d="M485.452 121.363c111.698.017 202.242 90.57 202.242 202.271 0 56.552-23.209 107.684-60.62 144.391l-.032.031c117.471 40.239 210.769 124.79 261.641 233.204l1.149 2.726c2.355 4.976 3.73 10.811 3.73 16.967 0 15.626-8.86 29.184-21.831 35.922l-.225.106c-111.873 58.339-244.321 92.56-384.761 92.56l-1.364-.001h.07c-136.007 0-267.525-32.04-386.056-92.6-13.187-6.847-22.041-20.4-22.041-36.021a40.295 40.295 0 0 1 3.819-17.181l-.104.247c52.042-111.125 145.332-195.668 259.659-234.993l3.133-.937c-37.443-36.738-60.652-87.87-60.652-144.422 0-111.701 90.543-202.255 202.241-202.271h.002zm0 404.543h-.148c-131.852 0-247.332 70.096-311.21 175.055l-.91 1.609c91.518 41.736 198.496 66.063 311.155 66.063l1.173-.001h-.061c109.146 0 214.975-22.736 312.226-66.062C732.9 596.002 617.426 525.906 485.581 525.906h-.137.008zm0-323.635c-67.026 0-121.363 54.336-121.363 121.363s54.336 121.363 121.363 121.363c67.026 0 121.363-54.336 121.363-121.363s-54.336-121.363-121.363-121.363z"/></svg><svg viewBox="0 0 1024 1024" id="account" xmlns="http://www.w3.org/2000/svg"><path d="M485.452 121.363c111.698.017 202.242 90.57 202.242 202.271 0 56.552-23.209 107.684-60.62 144.391l-.032.031c117.471 40.239 210.769 124.79 261.641 233.204l1.149 2.726c2.355 4.976 3.73 10.811 3.73 16.967 0 15.626-8.86 29.184-21.831 35.922l-.225.106c-111.873 58.339-244.321 92.56-384.761 92.56l-1.364-.001h.07c-136.007 0-267.525-32.04-386.056-92.6-13.187-6.847-22.041-20.4-22.041-36.021a40.295 40.295 0 0 1 3.819-17.181l-.104.247c52.042-111.125 145.332-195.668 259.659-234.993l3.133-.937c-37.443-36.738-60.652-87.87-60.652-144.422 0-111.701 90.543-202.255 202.241-202.271h.002zm0 404.543h-.148c-131.852 0-247.332 70.096-311.21 175.055l-.91 1.609c91.518 41.736 198.496 66.063 311.155 66.063l1.173-.001h-.061c109.146 0 214.975-22.736 312.226-66.062C732.9 596.002 617.426 525.906 485.581 525.906h-.137.008zm0-323.635c-67.026 0-121.363 54.336-121.363 121.363s54.336 121.363 121.363 121.363c67.026 0 121.363-54.336 121.363-121.363s-54.336-121.363-121.363-121.363z"/></svg><svg viewBox="0 0 1024 1024" id="account-add" xmlns="http://www.w3.org/2000/svg"><path d="M728.178 606.815c20.672.003 37.721 15.511 40.152 35.527l.019.194.283 4.733v40.455h40.455c20.672.003 37.721 15.511 40.152 35.527l.019.194.283 4.733c-.003 20.672-15.511 37.721-35.527 40.152l-.194.019-4.733.283h-40.455v40.455c-.003 20.672-15.511 37.721-35.527 40.152l-.194.019-4.733.283c-20.672-.003-37.721-15.511-40.152-35.527l-.019-.194-.283-4.733v-40.455h-40.455c-20.672-.003-37.721-15.511-40.152-35.527l-.019-.194-.283-4.733c.003-20.672 15.511-37.721 35.527-40.152l.194-.019 4.733-.283h40.455v-40.488c0-19.042 13.156-35.01 30.874-39.313l.277-.057 4.571-.809 4.733-.243zM485.452 121.363c111.698.017 202.242 90.57 202.242 202.271 0 56.552-23.209 107.684-60.62 144.391l-.032.031c9.466 3.115 18.811 6.634 28.035 10.437 14.814 6.23 25.026 20.622 25.026 37.4 0 22.345-18.114 40.459-40.459 40.459a40.35 40.35 0 0 1-15.699-3.158l.266.1c-40.877-17.321-88.412-27.388-138.299-27.388h-.485.025-.111c-131.849 0-247.322 70.116-311.165 175.094l-.91 1.611c91.494 41.71 198.44 66.022 311.064 66.022l1.184-.001h-.062c22.342 0 40.455 18.112 40.455 40.455s-18.112 40.455-40.455 40.455c-136.007 0-267.484-31.999-386.015-92.559-13.187-6.847-22.041-20.4-22.041-36.021a40.295 40.295 0 0 1 3.819-17.181l-.104.247c52.026-111.148 145.322-195.708 259.66-235.034l3.132-.937c-37.443-36.738-60.652-87.87-60.652-144.422 0-111.687 90.521-202.231 202.198-202.271h.004zm0 80.908c-67.026 0-121.363 54.336-121.363 121.363s54.336 121.363 121.363 121.363c67.026 0 121.363-54.336 121.363-121.363s-54.336-121.363-121.363-121.363z"/></svg><svg viewBox="0 0 1024 1024" id="account-add" xmlns="http://www.w3.org/2000/svg"><path d="M728.178 606.815c20.672.003 37.721 15.511 40.152 35.527l.019.194.283 4.733v40.455h40.455c20.672.003 37.721 15.511 40.152 35.527l.019.194.283 4.733c-.003 20.672-15.511 37.721-35.527 40.152l-.194.019-4.733.283h-40.455v40.455c-.003 20.672-15.511 37.721-35.527 40.152l-.194.019-4.733.283c-20.672-.003-37.721-15.511-40.152-35.527l-.019-.194-.283-4.733v-40.455h-40.455c-20.672-.003-37.721-15.511-40.152-35.527l-.019-.194-.283-4.733c.003-20.672 15.511-37.721 35.527-40.152l.194-.019 4.733-.283h40.455v-40.488c0-19.042 13.156-35.01 30.874-39.313l.277-.057 4.571-.809 4.733-.243zM485.452 121.363c111.698.017 202.242 90.57 202.242 202.271 0 56.552-23.209 107.684-60.62 144.391l-.032.031c9.466 3.115 18.811 6.634 28.035 10.437 14.814 6.23 25.026 20.622 25.026 37.4 0 22.345-18.114 40.459-40.459 40.459a40.35 40.35 0 0 1-15.699-3.158l.266.1c-40.877-17.321-88.412-27.388-138.299-27.388h-.485.025-.111c-131.849 0-247.322 70.116-311.165 175.094l-.91 1.611c91.494 41.71 198.44 66.022 311.064 66.022l1.184-.001h-.062c22.342 0 40.455 18.112 40.455 40.455s-18.112 40.455-40.455 40.455c-136.007 0-267.484-31.999-386.015-92.559-13.187-6.847-22.041-20.4-22.041-36.021a40.295 40.295 0 0 1 3.819-17.181l-.104.247c52.026-111.148 145.322-195.708 259.66-235.034l3.132-.937c-37.443-36.738-60.652-87.87-60.652-144.422 0-111.687 90.521-202.231 202.198-202.271h.004zm0 80.908c-67.026 0-121.363 54.336-121.363 121.363s54.336 121.363 121.363 121.363c67.026 0 121.363-54.336 121.363-121.363s-54.336-121.363-121.363-121.363z"/></svg><svg viewBox="0 0 1024 1024" id="account-add" xmlns="http://www.w3.org/2000/svg"><path d="M728.178 606.815c20.672.003 37.721 15.511 40.152 35.527l.019.194.283 4.733v40.455h40.455c20.672.003 37.721 15.511 40.152 35.527l.019.194.283 4.733c-.003 20.672-15.511 37.721-35.527 40.152l-.194.019-4.733.283h-40.455v40.455c-.003 20.672-15.511 37.721-35.527 40.152l-.194.019-4.733.283c-20.672-.003-37.721-15.511-40.152-35.527l-.019-.194-.283-4.733v-40.455h-40.455c-20.672-.003-37.721-15.511-40.152-35.527l-.019-.194-.283-4.733c.003-20.672 15.511-37.721 35.527-40.152l.194-.019 4.733-.283h40.455v-40.488c0-19.042 13.156-35.01 30.874-39.313l.277-.057 4.571-.809 4.733-.243zM485.452 121.363c111.698.017 202.242 90.57 202.242 202.271 0 56.552-23.209 107.684-60.62 144.391l-.032.031c9.466 3.115 18.811 6.634 28.035 10.437 14.814 6.23 25.026 20.622 25.026 37.4 0 22.345-18.114 40.459-40.459 40.459a40.35 40.35 0 0 1-15.699-3.158l.266.1c-40.877-17.321-88.412-27.388-138.299-27.388h-.485.025-.111c-131.849 0-247.322 70.116-311.165 175.094l-.91 1.611c91.494 41.71 198.44 66.022 311.064 66.022l1.184-.001h-.062c22.342 0 40.455 18.112 40.455 40.455s-18.112 40.455-40.455 40.455c-136.007 0-267.484-31.999-386.015-92.559-13.187-6.847-22.041-20.4-22.041-36.021a40.295 40.295 0 0 1 3.819-17.181l-.104.247c52.026-111.148 145.322-195.708 259.66-235.034l3.132-.937c-37.443-36.738-60.652-87.87-60.652-144.422 0-111.687 90.521-202.231 202.198-202.271h.004zm0 80.908c-67.026 0-121.363 54.336-121.363 121.363s54.336 121.363 121.363 121.363c67.026 0 121.363-54.336 121.363-121.363s-54.336-121.363-121.363-121.363z"/></svg><svg viewBox="0 0 1024 1024" id="account-add" xmlns="http://www.w3.org/2000/svg"><path d="M728.178 606.815c20.672.003 37.721 15.511 40.152 35.527l.019.194.283 4.733v40.455h40.455c20.672.003 37.721 15.511 40.152 35.527l.019.194.283 4.733c-.003 20.672-15.511 37.721-35.527 40.152l-.194.019-4.733.283h-40.455v40.455c-.003 20.672-15.511 37.721-35.527 40.152l-.194.019-4.733.283c-20.672-.003-37.721-15.511-40.152-35.527l-.019-.194-.283-4.733v-40.455h-40.455c-20.672-.003-37.721-15.511-40.152-35.527l-.019-.194-.283-4.733c.003-20.672 15.511-37.721 35.527-40.152l.194-.019 4.733-.283h40.455v-40.488c0-19.042 13.156-35.01 30.874-39.313l.277-.057 4.571-.809 4.733-.243zM485.452 121.363c111.698.017 202.242 90.57 202.242 202.271 0 56.552-23.209 107.684-60.62 144.391l-.032.031c9.466 3.115 18.811 6.634 28.035 10.437 14.814 6.23 25.026 20.622 25.026 37.4 0 22.345-18.114 40.459-40.459 40.459a40.35 40.35 0 0 1-15.699-3.158l.266.1c-40.877-17.321-88.412-27.388-138.299-27.388h-.485.025-.111c-131.849 0-247.322 70.116-311.165 175.094l-.91 1.611c91.494 41.71 198.44 66.022 311.064 66.022l1.184-.001h-.062c22.342 0 40.455 18.112 40.455 40.455s-18.112 40.455-40.455 40.455c-136.007 0-267.484-31.999-386.015-92.559-13.187-6.847-22.041-20.4-22.041-36.021a40.295 40.295 0 0 1 3.819-17.181l-.104.247c52.026-111.148 145.322-195.708 259.66-235.034l3.132-.937c-37.443-36.738-60.652-87.87-60.652-144.422 0-111.687 90.521-202.231 202.198-202.271h.004zm0 80.908c-67.026 0-121.363 54.336-121.363 121.363s54.336 121.363 121.363 121.363c67.026 0 121.363-54.336 121.363-121.363s-54.336-121.363-121.363-121.363z"/></svg><svg viewBox="0 0 1024 1024" id="account-add" xmlns="http://www.w3.org/2000/svg"><path d="M728.178 606.815c20.672.003 37.721 15.511 40.152 35.527l.019.194.283 4.733v40.455h40.455c20.672.003 37.721 15.511 40.152 35.527l.019.194.283 4.733c-.003 20.672-15.511 37.721-35.527 40.152l-.194.019-4.733.283h-40.455v40.455c-.003 20.672-15.511 37.721-35.527 40.152l-.194.019-4.733.283c-20.672-.003-37.721-15.511-40.152-35.527l-.019-.194-.283-4.733v-40.455h-40.455c-20.672-.003-37.721-15.511-40.152-35.527l-.019-.194-.283-4.733c.003-20.672 15.511-37.721 35.527-40.152l.194-.019 4.733-.283h40.455v-40.488c0-19.042 13.156-35.01 30.874-39.313l.277-.057 4.571-.809 4.733-.243zM485.452 121.363c111.698.017 202.242 90.57 202.242 202.271 0 56.552-23.209 107.684-60.62 144.391l-.032.031c9.466 3.115 18.811 6.634 28.035 10.437 14.814 6.23 25.026 20.622 25.026 37.4 0 22.345-18.114 40.459-40.459 40.459a40.35 40.35 0 0 1-15.699-3.158l.266.1c-40.877-17.321-88.412-27.388-138.299-27.388h-.485.025-.111c-131.849 0-247.322 70.116-311.165 175.094l-.91 1.611c91.494 41.71 198.44 66.022 311.064 66.022l1.184-.001h-.062c22.342 0 40.455 18.112 40.455 40.455s-18.112 40.455-40.455 40.455c-136.007 0-267.484-31.999-386.015-92.559-13.187-6.847-22.041-20.4-22.041-36.021a40.295 40.295 0 0 1 3.819-17.181l-.104.247c52.026-111.148 145.322-195.708 259.66-235.034l3.132-.937c-37.443-36.738-60.652-87.87-60.652-144.422 0-111.687 90.521-202.231 202.198-202.271h.004zm0 80.908c-67.026 0-121.363 54.336-121.363 121.363s54.336 121.363 121.363 121.363c67.026 0 121.363-54.336 121.363-121.363s-54.336-121.363-121.363-121.363z"/></svg><svg viewBox="0 0 1024 1024" id="account-add" xmlns="http://www.w3.org/2000/svg"><path d="M728.178 606.815c20.672.003 37.721 15.511 40.152 35.527l.019.194.283 4.733v40.455h40.455c20.672.003 37.721 15.511 40.152 35.527l.019.194.283 4.733c-.003 20.672-15.511 37.721-35.527 40.152l-.194.019-4.733.283h-40.455v40.455c-.003 20.672-15.511 37.721-35.527 40.152l-.194.019-4.733.283c-20.672-.003-37.721-15.511-40.152-35.527l-.019-.194-.283-4.733v-40.455h-40.455c-20.672-.003-37.721-15.511-40.152-35.527l-.019-.194-.283-4.733c.003-20.672 15.511-37.721 35.527-40.152l.194-.019 4.733-.283h40.455v-40.488c0-19.042 13.156-35.01 30.874-39.313l.277-.057 4.571-.809 4.733-.243zM485.452 121.363c111.698.017 202.242 90.57 202.242 202.271 0 56.552-23.209 107.684-60.62 144.391l-.032.031c9.466 3.115 18.811 6.634 28.035 10.437 14.814 6.23 25.026 20.622 25.026 37.4 0 22.345-18.114 40.459-40.459 40.459a40.35 40.35 0 0 1-15.699-3.158l.266.1c-40.877-17.321-88.412-27.388-138.299-27.388h-.485.025-.111c-131.849 0-247.322 70.116-311.165 175.094l-.91 1.611c91.494 41.71 198.44 66.022 311.064 66.022l1.184-.001h-.062c22.342 0 40.455 18.112 40.455 40.455s-18.112 40.455-40.455 40.455c-136.007 0-267.484-31.999-386.015-92.559-13.187-6.847-22.041-20.4-22.041-36.021a40.295 40.295 0 0 1 3.819-17.181l-.104.247c52.026-111.148 145.322-195.708 259.66-235.034l3.132-.937c-37.443-36.738-60.652-87.87-60.652-144.422 0-111.687 90.521-202.231 202.198-202.271h.004zm0 80.908c-67.026 0-121.363 54.336-121.363 121.363s54.336 121.363 121.363 121.363c67.026 0 121.363-54.336 121.363-121.363s-54.336-121.363-121.363-121.363z"/></svg><svg viewBox="0 0 1024 1024" id="account-add" xmlns="http://www.w3.org/2000/svg"><path d="M728.178 606.815c20.672.003 37.721 15.511 40.152 35.527l.019.194.283 4.733v40.455h40.455c20.672.003 37.721 15.511 40.152 35.527l.019.194.283 4.733c-.003 20.672-15.511 37.721-35.527 40.152l-.194.019-4.733.283h-40.455v40.455c-.003 20.672-15.511 37.721-35.527 40.152l-.194.019-4.733.283c-20.672-.003-37.721-15.511-40.152-35.527l-.019-.194-.283-4.733v-40.455h-40.455c-20.672-.003-37.721-15.511-40.152-35.527l-.019-.194-.283-4.733c.003-20.672 15.511-37.721 35.527-40.152l.194-.019 4.733-.283h40.455v-40.488c0-19.042 13.156-35.01 30.874-39.313l.277-.057 4.571-.809 4.733-.243zM485.452 121.363c111.698.017 202.242 90.57 202.242 202.271 0 56.552-23.209 107.684-60.62 144.391l-.032.031c9.466 3.115 18.811 6.634 28.035 10.437 14.814 6.23 25.026 20.622 25.026 37.4 0 22.345-18.114 40.459-40.459 40.459a40.35 40.35 0 0 1-15.699-3.158l.266.1c-40.877-17.321-88.412-27.388-138.299-27.388h-.485.025-.111c-131.849 0-247.322 70.116-311.165 175.094l-.91 1.611c91.494 41.71 198.44 66.022 311.064 66.022l1.184-.001h-.062c22.342 0 40.455 18.112 40.455 40.455s-18.112 40.455-40.455 40.455c-136.007 0-267.484-31.999-386.015-92.559-13.187-6.847-22.041-20.4-22.041-36.021a40.295 40.295 0 0 1 3.819-17.181l-.104.247c52.026-111.148 145.322-195.708 259.66-235.034l3.132-.937c-37.443-36.738-60.652-87.87-60.652-144.422 0-111.687 90.521-202.231 202.198-202.271h.004zm0 80.908c-67.026 0-121.363 54.336-121.363 121.363s54.336 121.363 121.363 121.363c67.026 0 121.363-54.336 121.363-121.363s-54.336-121.363-121.363-121.363z"/></svg><svg viewBox="0 0 1024 1024" id="account-add" xmlns="http://www.w3.org/2000/svg"><path d="M728.178 606.815c20.672.003 37.721 15.511 40.152 35.527l.019.194.283 4.733v40.455h40.455c20.672.003 37.721 15.511 40.152 35.527l.019.194.283 4.733c-.003 20.672-15.511 37.721-35.527 40.152l-.194.019-4.733.283h-40.455v40.455c-.003 20.672-15.511 37.721-35.527 40.152l-.194.019-4.733.283c-20.672-.003-37.721-15.511-40.152-35.527l-.019-.194-.283-4.733v-40.455h-40.455c-20.672-.003-37.721-15.511-40.152-35.527l-.019-.194-.283-4.733c.003-20.672 15.511-37.721 35.527-40.152l.194-.019 4.733-.283h40.455v-40.488c0-19.042 13.156-35.01 30.874-39.313l.277-.057 4.571-.809 4.733-.243zM485.452 121.363c111.698.017 202.242 90.57 202.242 202.271 0 56.552-23.209 107.684-60.62 144.391l-.032.031c9.466 3.115 18.811 6.634 28.035 10.437 14.814 6.23 25.026 20.622 25.026 37.4 0 22.345-18.114 40.459-40.459 40.459a40.35 40.35 0 0 1-15.699-3.158l.266.1c-40.877-17.321-88.412-27.388-138.299-27.388h-.485.025-.111c-131.849 0-247.322 70.116-311.165 175.094l-.91 1.611c91.494 41.71 198.44 66.022 311.064 66.022l1.184-.001h-.062c22.342 0 40.455 18.112 40.455 40.455s-18.112 40.455-40.455 40.455c-136.007 0-267.484-31.999-386.015-92.559-13.187-6.847-22.041-20.4-22.041-36.021a40.295 40.295 0 0 1 3.819-17.181l-.104.247c52.026-111.148 145.322-195.708 259.66-235.034l3.132-.937c-37.443-36.738-60.652-87.87-60.652-144.422 0-111.687 90.521-202.231 202.198-202.271h.004zm0 80.908c-67.026 0-121.363 54.336-121.363 121.363s54.336 121.363 121.363 121.363c67.026 0 121.363-54.336 121.363-121.363s-54.336-121.363-121.363-121.363z"/></svg><svg viewBox="0 0 1024 1024" id="account-add" xmlns="http://www.w3.org/2000/svg"><path d="M728.178 606.815c20.672.003 37.721 15.511 40.152 35.527l.019.194.283 4.733v40.455h40.455c20.672.003 37.721 15.511 40.152 35.527l.019.194.283 4.733c-.003 20.672-15.511 37.721-35.527 40.152l-.194.019-4.733.283h-40.455v40.455c-.003 20.672-15.511 37.721-35.527 40.152l-.194.019-4.733.283c-20.672-.003-37.721-15.511-40.152-35.527l-.019-.194-.283-4.733v-40.455h-40.455c-20.672-.003-37.721-15.511-40.152-35.527l-.019-.194-.283-4.733c.003-20.672 15.511-37.721 35.527-40.152l.194-.019 4.733-.283h40.455v-40.488c0-19.042 13.156-35.01 30.874-39.313l.277-.057 4.571-.809 4.733-.243zM485.452 121.363c111.698.017 202.242 90.57 202.242 202.271 0 56.552-23.209 107.684-60.62 144.391l-.032.031c9.466 3.115 18.811 6.634 28.035 10.437 14.814 6.23 25.026 20.622 25.026 37.4 0 22.345-18.114 40.459-40.459 40.459a40.35 40.35 0 0 1-15.699-3.158l.266.1c-40.877-17.321-88.412-27.388-138.299-27.388h-.485.025-.111c-131.849 0-247.322 70.116-311.165 175.094l-.91 1.611c91.494 41.71 198.44 66.022 311.064 66.022l1.184-.001h-.062c22.342 0 40.455 18.112 40.455 40.455s-18.112 40.455-40.455 40.455c-136.007 0-267.484-31.999-386.015-92.559-13.187-6.847-22.041-20.4-22.041-36.021a40.295 40.295 0 0 1 3.819-17.181l-.104.247c52.026-111.148 145.322-195.708 259.66-235.034l3.132-.937c-37.443-36.738-60.652-87.87-60.652-144.422 0-111.687 90.521-202.231 202.198-202.271h.004zm0 80.908c-67.026 0-121.363 54.336-121.363 121.363s54.336 121.363 121.363 121.363c67.026 0 121.363-54.336 121.363-121.363s-54.336-121.363-121.363-121.363z"/></svg><svg viewBox="0 0 1024 1024" id="account-add" xmlns="http://www.w3.org/2000/svg"><path d="M728.178 606.815c20.672.003 37.721 15.511 40.152 35.527l.019.194.283 4.733v40.455h40.455c20.672.003 37.721 15.511 40.152 35.527l.019.194.283 4.733c-.003 20.672-15.511 37.721-35.527 40.152l-.194.019-4.733.283h-40.455v40.455c-.003 20.672-15.511 37.721-35.527 40.152l-.194.019-4.733.283c-20.672-.003-37.721-15.511-40.152-35.527l-.019-.194-.283-4.733v-40.455h-40.455c-20.672-.003-37.721-15.511-40.152-35.527l-.019-.194-.283-4.733c.003-20.672 15.511-37.721 35.527-40.152l.194-.019 4.733-.283h40.455v-40.488c0-19.042 13.156-35.01 30.874-39.313l.277-.057 4.571-.809 4.733-.243zM485.452 121.363c111.698.017 202.242 90.57 202.242 202.271 0 56.552-23.209 107.684-60.62 144.391l-.032.031c9.466 3.115 18.811 6.634 28.035 10.437 14.814 6.23 25.026 20.622 25.026 37.4 0 22.345-18.114 40.459-40.459 40.459a40.35 40.35 0 0 1-15.699-3.158l.266.1c-40.877-17.321-88.412-27.388-138.299-27.388h-.485.025-.111c-131.849 0-247.322 70.116-311.165 175.094l-.91 1.611c91.494 41.71 198.44 66.022 311.064 66.022l1.184-.001h-.062c22.342 0 40.455 18.112 40.455 40.455s-18.112 40.455-40.455 40.455c-136.007 0-267.484-31.999-386.015-92.559-13.187-6.847-22.041-20.4-22.041-36.021a40.295 40.295 0 0 1 3.819-17.181l-.104.247c52.026-111.148 145.322-195.708 259.66-235.034l3.132-.937c-37.443-36.738-60.652-87.87-60.652-144.422 0-111.687 90.521-202.231 202.198-202.271h.004zm0 80.908c-67.026 0-121.363 54.336-121.363 121.363s54.336 121.363 121.363 121.363c67.026 0 121.363-54.336 121.363-121.363s-54.336-121.363-121.363-121.363z"/></svg><svg viewBox="0 0 1024 1024" id="account-add" xmlns="http://www.w3.org/2000/svg"><path d="M728.178 606.815c20.672.003 37.721 15.511 40.152 35.527l.019.194.283 4.733v40.455h40.455c20.672.003 37.721 15.511 40.152 35.527l.019.194.283 4.733c-.003 20.672-15.511 37.721-35.527 40.152l-.194.019-4.733.283h-40.455v40.455c-.003 20.672-15.511 37.721-35.527 40.152l-.194.019-4.733.283c-20.672-.003-37.721-15.511-40.152-35.527l-.019-.194-.283-4.733v-40.455h-40.455c-20.672-.003-37.721-15.511-40.152-35.527l-.019-.194-.283-4.733c.003-20.672 15.511-37.721 35.527-40.152l.194-.019 4.733-.283h40.455v-40.488c0-19.042 13.156-35.01 30.874-39.313l.277-.057 4.571-.809 4.733-.243zM485.452 121.363c111.698.017 202.242 90.57 202.242 202.271 0 56.552-23.209 107.684-60.62 144.391l-.032.031c9.466 3.115 18.811 6.634 28.035 10.437 14.814 6.23 25.026 20.622 25.026 37.4 0 22.345-18.114 40.459-40.459 40.459a40.35 40.35 0 0 1-15.699-3.158l.266.1c-40.877-17.321-88.412-27.388-138.299-27.388h-.485.025-.111c-131.849 0-247.322 70.116-311.165 175.094l-.91 1.611c91.494 41.71 198.44 66.022 311.064 66.022l1.184-.001h-.062c22.342 0 40.455 18.112 40.455 40.455s-18.112 40.455-40.455 40.455c-136.007 0-267.484-31.999-386.015-92.559-13.187-6.847-22.041-20.4-22.041-36.021a40.295 40.295 0 0 1 3.819-17.181l-.104.247c52.026-111.148 145.322-195.708 259.66-235.034l3.132-.937c-37.443-36.738-60.652-87.87-60.652-144.422 0-111.687 90.521-202.231 202.198-202.271h.004zm0 80.908c-67.026 0-121.363 54.336-121.363 121.363s54.336 121.363 121.363 121.363c67.026 0 121.363-54.336 121.363-121.363s-54.336-121.363-121.363-121.363z"/></svg><svg viewBox="0 0 1024 1024" id="account-add" xmlns="http://www.w3.org/2000/svg"><path d="M728.178 606.815c20.672.003 37.721 15.511 40.152 35.527l.019.194.283 4.733v40.455h40.455c20.672.003 37.721 15.511 40.152 35.527l.019.194.283 4.733c-.003 20.672-15.511 37.721-35.527 40.152l-.194.019-4.733.283h-40.455v40.455c-.003 20.672-15.511 37.721-35.527 40.152l-.194.019-4.733.283c-20.672-.003-37.721-15.511-40.152-35.527l-.019-.194-.283-4.733v-40.455h-40.455c-20.672-.003-37.721-15.511-40.152-35.527l-.019-.194-.283-4.733c.003-20.672 15.511-37.721 35.527-40.152l.194-.019 4.733-.283h40.455v-40.488c0-19.042 13.156-35.01 30.874-39.313l.277-.057 4.571-.809 4.733-.243zM485.452 121.363c111.698.017 202.242 90.57 202.242 202.271 0 56.552-23.209 107.684-60.62 144.391l-.032.031c9.466 3.115 18.811 6.634 28.035 10.437 14.814 6.23 25.026 20.622 25.026 37.4 0 22.345-18.114 40.459-40.459 40.459a40.35 40.35 0 0 1-15.699-3.158l.266.1c-40.877-17.321-88.412-27.388-138.299-27.388h-.485.025-.111c-131.849 0-247.322 70.116-311.165 175.094l-.91 1.611c91.494 41.71 198.44 66.022 311.064 66.022l1.184-.001h-.062c22.342 0 40.455 18.112 40.455 40.455s-18.112 40.455-40.455 40.455c-136.007 0-267.484-31.999-386.015-92.559-13.187-6.847-22.041-20.4-22.041-36.021a40.295 40.295 0 0 1 3.819-17.181l-.104.247c52.026-111.148 145.322-195.708 259.66-235.034l3.132-.937c-37.443-36.738-60.652-87.87-60.652-144.422 0-111.687 90.521-202.231 202.198-202.271h.004zm0 80.908c-67.026 0-121.363 54.336-121.363 121.363s54.336 121.363 121.363 121.363c67.026 0 121.363-54.336 121.363-121.363s-54.336-121.363-121.363-121.363z"/></svg><svg viewBox="0 0 1024 1024" id="account-add" xmlns="http://www.w3.org/2000/svg"><path d="M728.178 606.815c20.672.003 37.721 15.511 40.152 35.527l.019.194.283 4.733v40.455h40.455c20.672.003 37.721 15.511 40.152 35.527l.019.194.283 4.733c-.003 20.672-15.511 37.721-35.527 40.152l-.194.019-4.733.283h-40.455v40.455c-.003 20.672-15.511 37.721-35.527 40.152l-.194.019-4.733.283c-20.672-.003-37.721-15.511-40.152-35.527l-.019-.194-.283-4.733v-40.455h-40.455c-20.672-.003-37.721-15.511-40.152-35.527l-.019-.194-.283-4.733c.003-20.672 15.511-37.721 35.527-40.152l.194-.019 4.733-.283h40.455v-40.488c0-19.042 13.156-35.01 30.874-39.313l.277-.057 4.571-.809 4.733-.243zM485.452 121.363c111.698.017 202.242 90.57 202.242 202.271 0 56.552-23.209 107.684-60.62 144.391l-.032.031c9.466 3.115 18.811 6.634 28.035 10.437 14.814 6.23 25.026 20.622 25.026 37.4 0 22.345-18.114 40.459-40.459 40.459a40.35 40.35 0 0 1-15.699-3.158l.266.1c-40.877-17.321-88.412-27.388-138.299-27.388h-.485.025-.111c-131.849 0-247.322 70.116-311.165 175.094l-.91 1.611c91.494 41.71 198.44 66.022 311.064 66.022l1.184-.001h-.062c22.342 0 40.455 18.112 40.455 40.455s-18.112 40.455-40.455 40.455c-136.007 0-267.484-31.999-386.015-92.559-13.187-6.847-22.041-20.4-22.041-36.021a40.295 40.295 0 0 1 3.819-17.181l-.104.247c52.026-111.148 145.322-195.708 259.66-235.034l3.132-.937c-37.443-36.738-60.652-87.87-60.652-144.422 0-111.687 90.521-202.231 202.198-202.271h.004zm0 80.908c-67.026 0-121.363 54.336-121.363 121.363s54.336 121.363 121.363 121.363c67.026 0 121.363-54.336 121.363-121.363s-54.336-121.363-121.363-121.363z"/></svg><svg viewBox="0 0 1024 1024" id="account-add" xmlns="http://www.w3.org/2000/svg"><path d="M728.178 606.815c20.672.003 37.721 15.511 40.152 35.527l.019.194.283 4.733v40.455h40.455c20.672.003 37.721 15.511 40.152 35.527l.019.194.283 4.733c-.003 20.672-15.511 37.721-35.527 40.152l-.194.019-4.733.283h-40.455v40.455c-.003 20.672-15.511 37.721-35.527 40.152l-.194.019-4.733.283c-20.672-.003-37.721-15.511-40.152-35.527l-.019-.194-.283-4.733v-40.455h-40.455c-20.672-.003-37.721-15.511-40.152-35.527l-.019-.194-.283-4.733c.003-20.672 15.511-37.721 35.527-40.152l.194-.019 4.733-.283h40.455v-40.488c0-19.042 13.156-35.01 30.874-39.313l.277-.057 4.571-.809 4.733-.243zM485.452 121.363c111.698.017 202.242 90.57 202.242 202.271 0 56.552-23.209 107.684-60.62 144.391l-.032.031c9.466 3.115 18.811 6.634 28.035 10.437 14.814 6.23 25.026 20.622 25.026 37.4 0 22.345-18.114 40.459-40.459 40.459a40.35 40.35 0 0 1-15.699-3.158l.266.1c-40.877-17.321-88.412-27.388-138.299-27.388h-.485.025-.111c-131.849 0-247.322 70.116-311.165 175.094l-.91 1.611c91.494 41.71 198.44 66.022 311.064 66.022l1.184-.001h-.062c22.342 0 40.455 18.112 40.455 40.455s-18.112 40.455-40.455 40.455c-136.007 0-267.484-31.999-386.015-92.559-13.187-6.847-22.041-20.4-22.041-36.021a40.295 40.295 0 0 1 3.819-17.181l-.104.247c52.026-111.148 145.322-195.708 259.66-235.034l3.132-.937c-37.443-36.738-60.652-87.87-60.652-144.422 0-111.687 90.521-202.231 202.198-202.271h.004zm0 80.908c-67.026 0-121.363 54.336-121.363 121.363s54.336 121.363 121.363 121.363c67.026 0 121.363-54.336 121.363-121.363s-54.336-121.363-121.363-121.363z"/></svg><svg viewBox="0 0 1024 1024" id="account-add" xmlns="http://www.w3.org/2000/svg"><path d="M728.178 606.815c20.672.003 37.721 15.511 40.152 35.527l.019.194.283 4.733v40.455h40.455c20.672.003 37.721 15.511 40.152 35.527l.019.194.283 4.733c-.003 20.672-15.511 37.721-35.527 40.152l-.194.019-4.733.283h-40.455v40.455c-.003 20.672-15.511 37.721-35.527 40.152l-.194.019-4.733.283c-20.672-.003-37.721-15.511-40.152-35.527l-.019-.194-.283-4.733v-40.455h-40.455c-20.672-.003-37.721-15.511-40.152-35.527l-.019-.194-.283-4.733c.003-20.672 15.511-37.721 35.527-40.152l.194-.019 4.733-.283h40.455v-40.488c0-19.042 13.156-35.01 30.874-39.313l.277-.057 4.571-.809 4.733-.243zM485.452 121.363c111.698.017 202.242 90.57 202.242 202.271 0 56.552-23.209 107.684-60.62 144.391l-.032.031c9.466 3.115 18.811 6.634 28.035 10.437 14.814 6.23 25.026 20.622 25.026 37.4 0 22.345-18.114 40.459-40.459 40.459a40.35 40.35 0 0 1-15.699-3.158l.266.1c-40.877-17.321-88.412-27.388-138.299-27.388h-.485.025-.111c-131.849 0-247.322 70.116-311.165 175.094l-.91 1.611c91.494 41.71 198.44 66.022 311.064 66.022l1.184-.001h-.062c22.342 0 40.455 18.112 40.455 40.455s-18.112 40.455-40.455 40.455c-136.007 0-267.484-31.999-386.015-92.559-13.187-6.847-22.041-20.4-22.041-36.021a40.295 40.295 0 0 1 3.819-17.181l-.104.247c52.026-111.148 145.322-195.708 259.66-235.034l3.132-.937c-37.443-36.738-60.652-87.87-60.652-144.422 0-111.687 90.521-202.231 202.198-202.271h.004zm0 80.908c-67.026 0-121.363 54.336-121.363 121.363s54.336 121.363 121.363 121.363c67.026 0 121.363-54.336 121.363-121.363s-54.336-121.363-121.363-121.363z"/></svg><svg viewBox="0 0 1024 1024" id="account-remove" xmlns="http://www.w3.org/2000/svg"><path d="M485.452 121.363c111.698.017 202.242 90.57 202.242 202.271 0 56.552-23.209 107.684-60.62 144.391l-.032.031c9.466 3.115 18.811 6.634 28.035 10.437 14.814 6.23 25.026 20.622 25.026 37.4 0 22.345-18.114 40.459-40.459 40.459a40.35 40.35 0 0 1-15.699-3.158l.266.1c-40.877-17.321-88.412-27.388-138.299-27.388h-.485.025-.111c-131.849 0-247.322 70.116-311.165 175.094l-.91 1.611c91.494 41.71 198.44 66.022 311.064 66.022l1.184-.001h-.062c22.342 0 40.455 18.112 40.455 40.455s-18.112 40.455-40.455 40.455c-136.007 0-267.484-31.999-386.015-92.559-13.187-6.847-22.041-20.4-22.041-36.021a40.295 40.295 0 0 1 3.819-17.181l-.104.247c52.026-111.148 145.322-195.708 259.66-235.034l3.132-.937c-37.443-36.738-60.652-87.87-60.652-144.422 0-111.687 90.521-202.231 202.198-202.271h.004zm161.817 566.36h161.818c22.323.026 40.409 18.128 40.409 40.455 0 20.658-15.485 37.7-35.481 40.151l-.195.02-4.733.283H647.269c-22.323-.026-40.409-18.128-40.409-40.455 0-20.658 15.485-37.7 35.481-40.151l.195-.02 4.733-.283h161.818zM485.452 202.271c-67.026 0-121.363 54.336-121.363 121.363s54.336 121.363 121.363 121.363c67.026 0 121.363-54.336 121.363-121.363s-54.336-121.363-121.363-121.363z"/></svg><svg viewBox="0 0 1024 1024" id="account-remove" xmlns="http://www.w3.org/2000/svg"><path d="M485.452 121.363c111.698.017 202.242 90.57 202.242 202.271 0 56.552-23.209 107.684-60.62 144.391l-.032.031c9.466 3.115 18.811 6.634 28.035 10.437 14.814 6.23 25.026 20.622 25.026 37.4 0 22.345-18.114 40.459-40.459 40.459a40.35 40.35 0 0 1-15.699-3.158l.266.1c-40.877-17.321-88.412-27.388-138.299-27.388h-.485.025-.111c-131.849 0-247.322 70.116-311.165 175.094l-.91 1.611c91.494 41.71 198.44 66.022 311.064 66.022l1.184-.001h-.062c22.342 0 40.455 18.112 40.455 40.455s-18.112 40.455-40.455 40.455c-136.007 0-267.484-31.999-386.015-92.559-13.187-6.847-22.041-20.4-22.041-36.021a40.295 40.295 0 0 1 3.819-17.181l-.104.247c52.026-111.148 145.322-195.708 259.66-235.034l3.132-.937c-37.443-36.738-60.652-87.87-60.652-144.422 0-111.687 90.521-202.231 202.198-202.271h.004zm161.817 566.36h161.818c22.323.026 40.409 18.128 40.409 40.455 0 20.658-15.485 37.7-35.481 40.151l-.195.02-4.733.283H647.269c-22.323-.026-40.409-18.128-40.409-40.455 0-20.658 15.485-37.7 35.481-40.151l.195-.02 4.733-.283h161.818zM485.452 202.271c-67.026 0-121.363 54.336-121.363 121.363s54.336 121.363 121.363 121.363c67.026 0 121.363-54.336 121.363-121.363s-54.336-121.363-121.363-121.363z"/></svg><svg viewBox="0 0 1024 1024" id="account-remove" xmlns="http://www.w3.org/2000/svg"><path d="M485.452 121.363c111.698.017 202.242 90.57 202.242 202.271 0 56.552-23.209 107.684-60.62 144.391l-.032.031c9.466 3.115 18.811 6.634 28.035 10.437 14.814 6.23 25.026 20.622 25.026 37.4 0 22.345-18.114 40.459-40.459 40.459a40.35 40.35 0 0 1-15.699-3.158l.266.1c-40.877-17.321-88.412-27.388-138.299-27.388h-.485.025-.111c-131.849 0-247.322 70.116-311.165 175.094l-.91 1.611c91.494 41.71 198.44 66.022 311.064 66.022l1.184-.001h-.062c22.342 0 40.455 18.112 40.455 40.455s-18.112 40.455-40.455 40.455c-136.007 0-267.484-31.999-386.015-92.559-13.187-6.847-22.041-20.4-22.041-36.021a40.295 40.295 0 0 1 3.819-17.181l-.104.247c52.026-111.148 145.322-195.708 259.66-235.034l3.132-.937c-37.443-36.738-60.652-87.87-60.652-144.422 0-111.687 90.521-202.231 202.198-202.271h.004zm161.817 566.36h161.818c22.323.026 40.409 18.128 40.409 40.455 0 20.658-15.485 37.7-35.481 40.151l-.195.02-4.733.283H647.269c-22.323-.026-40.409-18.128-40.409-40.455 0-20.658 15.485-37.7 35.481-40.151l.195-.02 4.733-.283h161.818zM485.452 202.271c-67.026 0-121.363 54.336-121.363 121.363s54.336 121.363 121.363 121.363c67.026 0 121.363-54.336 121.363-121.363s-54.336-121.363-121.363-121.363z"/></svg><svg viewBox="0 0 1024 1024" id="account-remove" xmlns="http://www.w3.org/2000/svg"><path d="M485.452 121.363c111.698.017 202.242 90.57 202.242 202.271 0 56.552-23.209 107.684-60.62 144.391l-.032.031c9.466 3.115 18.811 6.634 28.035 10.437 14.814 6.23 25.026 20.622 25.026 37.4 0 22.345-18.114 40.459-40.459 40.459a40.35 40.35 0 0 1-15.699-3.158l.266.1c-40.877-17.321-88.412-27.388-138.299-27.388h-.485.025-.111c-131.849 0-247.322 70.116-311.165 175.094l-.91 1.611c91.494 41.71 198.44 66.022 311.064 66.022l1.184-.001h-.062c22.342 0 40.455 18.112 40.455 40.455s-18.112 40.455-40.455 40.455c-136.007 0-267.484-31.999-386.015-92.559-13.187-6.847-22.041-20.4-22.041-36.021a40.295 40.295 0 0 1 3.819-17.181l-.104.247c52.026-111.148 145.322-195.708 259.66-235.034l3.132-.937c-37.443-36.738-60.652-87.87-60.652-144.422 0-111.687 90.521-202.231 202.198-202.271h.004zm161.817 566.36h161.818c22.323.026 40.409 18.128 40.409 40.455 0 20.658-15.485 37.7-35.481 40.151l-.195.02-4.733.283H647.269c-22.323-.026-40.409-18.128-40.409-40.455 0-20.658 15.485-37.7 35.481-40.151l.195-.02 4.733-.283h161.818zM485.452 202.271c-67.026 0-121.363 54.336-121.363 121.363s54.336 121.363 121.363 121.363c67.026 0 121.363-54.336 121.363-121.363s-54.336-121.363-121.363-121.363z"/></svg><svg viewBox="0 0 1024 1024" id="account-remove" xmlns="http://www.w3.org/2000/svg"><path d="M485.452 121.363c111.698.017 202.242 90.57 202.242 202.271 0 56.552-23.209 107.684-60.62 144.391l-.032.031c9.466 3.115 18.811 6.634 28.035 10.437 14.814 6.23 25.026 20.622 25.026 37.4 0 22.345-18.114 40.459-40.459 40.459a40.35 40.35 0 0 1-15.699-3.158l.266.1c-40.877-17.321-88.412-27.388-138.299-27.388h-.485.025-.111c-131.849 0-247.322 70.116-311.165 175.094l-.91 1.611c91.494 41.71 198.44 66.022 311.064 66.022l1.184-.001h-.062c22.342 0 40.455 18.112 40.455 40.455s-18.112 40.455-40.455 40.455c-136.007 0-267.484-31.999-386.015-92.559-13.187-6.847-22.041-20.4-22.041-36.021a40.295 40.295 0 0 1 3.819-17.181l-.104.247c52.026-111.148 145.322-195.708 259.66-235.034l3.132-.937c-37.443-36.738-60.652-87.87-60.652-144.422 0-111.687 90.521-202.231 202.198-202.271h.004zm161.817 566.36h161.818c22.323.026 40.409 18.128 40.409 40.455 0 20.658-15.485 37.7-35.481 40.151l-.195.02-4.733.283H647.269c-22.323-.026-40.409-18.128-40.409-40.455 0-20.658 15.485-37.7 35.481-40.151l.195-.02 4.733-.283h161.818zM485.452 202.271c-67.026 0-121.363 54.336-121.363 121.363s54.336 121.363 121.363 121.363c67.026 0 121.363-54.336 121.363-121.363s-54.336-121.363-121.363-121.363z"/></svg><svg viewBox="0 0 1024 1024" id="account-remove" xmlns="http://www.w3.org/2000/svg"><path d="M485.452 121.363c111.698.017 202.242 90.57 202.242 202.271 0 56.552-23.209 107.684-60.62 144.391l-.032.031c9.466 3.115 18.811 6.634 28.035 10.437 14.814 6.23 25.026 20.622 25.026 37.4 0 22.345-18.114 40.459-40.459 40.459a40.35 40.35 0 0 1-15.699-3.158l.266.1c-40.877-17.321-88.412-27.388-138.299-27.388h-.485.025-.111c-131.849 0-247.322 70.116-311.165 175.094l-.91 1.611c91.494 41.71 198.44 66.022 311.064 66.022l1.184-.001h-.062c22.342 0 40.455 18.112 40.455 40.455s-18.112 40.455-40.455 40.455c-136.007 0-267.484-31.999-386.015-92.559-13.187-6.847-22.041-20.4-22.041-36.021a40.295 40.295 0 0 1 3.819-17.181l-.104.247c52.026-111.148 145.322-195.708 259.66-235.034l3.132-.937c-37.443-36.738-60.652-87.87-60.652-144.422 0-111.687 90.521-202.231 202.198-202.271h.004zm161.817 566.36h161.818c22.323.026 40.409 18.128 40.409 40.455 0 20.658-15.485 37.7-35.481 40.151l-.195.02-4.733.283H647.269c-22.323-.026-40.409-18.128-40.409-40.455 0-20.658 15.485-37.7 35.481-40.151l.195-.02 4.733-.283h161.818zM485.452 202.271c-67.026 0-121.363 54.336-121.363 121.363s54.336 121.363 121.363 121.363c67.026 0 121.363-54.336 121.363-121.363s-54.336-121.363-121.363-121.363z"/></svg><svg viewBox="0 0 1024 1024" id="account-remove" xmlns="http://www.w3.org/2000/svg"><path d="M485.452 121.363c111.698.017 202.242 90.57 202.242 202.271 0 56.552-23.209 107.684-60.62 144.391l-.032.031c9.466 3.115 18.811 6.634 28.035 10.437 14.814 6.23 25.026 20.622 25.026 37.4 0 22.345-18.114 40.459-40.459 40.459a40.35 40.35 0 0 1-15.699-3.158l.266.1c-40.877-17.321-88.412-27.388-138.299-27.388h-.485.025-.111c-131.849 0-247.322 70.116-311.165 175.094l-.91 1.611c91.494 41.71 198.44 66.022 311.064 66.022l1.184-.001h-.062c22.342 0 40.455 18.112 40.455 40.455s-18.112 40.455-40.455 40.455c-136.007 0-267.484-31.999-386.015-92.559-13.187-6.847-22.041-20.4-22.041-36.021a40.295 40.295 0 0 1 3.819-17.181l-.104.247c52.026-111.148 145.322-195.708 259.66-235.034l3.132-.937c-37.443-36.738-60.652-87.87-60.652-144.422 0-111.687 90.521-202.231 202.198-202.271h.004zm161.817 566.36h161.818c22.323.026 40.409 18.128 40.409 40.455 0 20.658-15.485 37.7-35.481 40.151l-.195.02-4.733.283H647.269c-22.323-.026-40.409-18.128-40.409-40.455 0-20.658 15.485-37.7 35.481-40.151l.195-.02 4.733-.283h161.818zM485.452 202.271c-67.026 0-121.363 54.336-121.363 121.363s54.336 121.363 121.363 121.363c67.026 0 121.363-54.336 121.363-121.363s-54.336-121.363-121.363-121.363z"/></svg><svg viewBox="0 0 1024 1024" id="account-remove" xmlns="http://www.w3.org/2000/svg"><path d="M485.452 121.363c111.698.017 202.242 90.57 202.242 202.271 0 56.552-23.209 107.684-60.62 144.391l-.032.031c9.466 3.115 18.811 6.634 28.035 10.437 14.814 6.23 25.026 20.622 25.026 37.4 0 22.345-18.114 40.459-40.459 40.459a40.35 40.35 0 0 1-15.699-3.158l.266.1c-40.877-17.321-88.412-27.388-138.299-27.388h-.485.025-.111c-131.849 0-247.322 70.116-311.165 175.094l-.91 1.611c91.494 41.71 198.44 66.022 311.064 66.022l1.184-.001h-.062c22.342 0 40.455 18.112 40.455 40.455s-18.112 40.455-40.455 40.455c-136.007 0-267.484-31.999-386.015-92.559-13.187-6.847-22.041-20.4-22.041-36.021a40.295 40.295 0 0 1 3.819-17.181l-.104.247c52.026-111.148 145.322-195.708 259.66-235.034l3.132-.937c-37.443-36.738-60.652-87.87-60.652-144.422 0-111.687 90.521-202.231 202.198-202.271h.004zm161.817 566.36h161.818c22.323.026 40.409 18.128 40.409 40.455 0 20.658-15.485 37.7-35.481 40.151l-.195.02-4.733.283H647.269c-22.323-.026-40.409-18.128-40.409-40.455 0-20.658 15.485-37.7 35.481-40.151l.195-.02 4.733-.283h161.818zM485.452 202.271c-67.026 0-121.363 54.336-121.363 121.363s54.336 121.363 121.363 121.363c67.026 0 121.363-54.336 121.363-121.363s-54.336-121.363-121.363-121.363z"/></svg><svg viewBox="0 0 1024 1024" id="account-remove" xmlns="http://www.w3.org/2000/svg"><path d="M485.452 121.363c111.698.017 202.242 90.57 202.242 202.271 0 56.552-23.209 107.684-60.62 144.391l-.032.031c9.466 3.115 18.811 6.634 28.035 10.437 14.814 6.23 25.026 20.622 25.026 37.4 0 22.345-18.114 40.459-40.459 40.459a40.35 40.35 0 0 1-15.699-3.158l.266.1c-40.877-17.321-88.412-27.388-138.299-27.388h-.485.025-.111c-131.849 0-247.322 70.116-311.165 175.094l-.91 1.611c91.494 41.71 198.44 66.022 311.064 66.022l1.184-.001h-.062c22.342 0 40.455 18.112 40.455 40.455s-18.112 40.455-40.455 40.455c-136.007 0-267.484-31.999-386.015-92.559-13.187-6.847-22.041-20.4-22.041-36.021a40.295 40.295 0 0 1 3.819-17.181l-.104.247c52.026-111.148 145.322-195.708 259.66-235.034l3.132-.937c-37.443-36.738-60.652-87.87-60.652-144.422 0-111.687 90.521-202.231 202.198-202.271h.004zm161.817 566.36h161.818c22.323.026 40.409 18.128 40.409 40.455 0 20.658-15.485 37.7-35.481 40.151l-.195.02-4.733.283H647.269c-22.323-.026-40.409-18.128-40.409-40.455 0-20.658 15.485-37.7 35.481-40.151l.195-.02 4.733-.283h161.818zM485.452 202.271c-67.026 0-121.363 54.336-121.363 121.363s54.336 121.363 121.363 121.363c67.026 0 121.363-54.336 121.363-121.363s-54.336-121.363-121.363-121.363z"/></svg><svg viewBox="0 0 1024 1024" id="account-remove" xmlns="http://www.w3.org/2000/svg"><path d="M485.452 121.363c111.698.017 202.242 90.57 202.242 202.271 0 56.552-23.209 107.684-60.62 144.391l-.032.031c9.466 3.115 18.811 6.634 28.035 10.437 14.814 6.23 25.026 20.622 25.026 37.4 0 22.345-18.114 40.459-40.459 40.459a40.35 40.35 0 0 1-15.699-3.158l.266.1c-40.877-17.321-88.412-27.388-138.299-27.388h-.485.025-.111c-131.849 0-247.322 70.116-311.165 175.094l-.91 1.611c91.494 41.71 198.44 66.022 311.064 66.022l1.184-.001h-.062c22.342 0 40.455 18.112 40.455 40.455s-18.112 40.455-40.455 40.455c-136.007 0-267.484-31.999-386.015-92.559-13.187-6.847-22.041-20.4-22.041-36.021a40.295 40.295 0 0 1 3.819-17.181l-.104.247c52.026-111.148 145.322-195.708 259.66-235.034l3.132-.937c-37.443-36.738-60.652-87.87-60.652-144.422 0-111.687 90.521-202.231 202.198-202.271h.004zm161.817 566.36h161.818c22.323.026 40.409 18.128 40.409 40.455 0 20.658-15.485 37.7-35.481 40.151l-.195.02-4.733.283H647.269c-22.323-.026-40.409-18.128-40.409-40.455 0-20.658 15.485-37.7 35.481-40.151l.195-.02 4.733-.283h161.818zM485.452 202.271c-67.026 0-121.363 54.336-121.363 121.363s54.336 121.363 121.363 121.363c67.026 0 121.363-54.336 121.363-121.363s-54.336-121.363-121.363-121.363z"/></svg><svg viewBox="0 0 1024 1024" id="add-profile" xmlns="http://www.w3.org/2000/svg"><path d="M512 177.809c8.821 0 15.971 7.151 15.971 15.971l-.008 303.341h303.356c8.415.003 15.309 6.513 15.922 14.772l.003.053.038 1.146c0 8.821-7.151 15.971-15.971 15.971l-303.349-.008v303.356c.005.147.008.32.008.494 0 8.821-7.151 15.971-15.971 15.971s-15.971-7.151-15.971-15.971c0-.174.003-.347.008-.519l-.001.025-.008-303.356H192.678c-8.415-.003-15.309-6.513-15.922-14.772l-.003-.053-.038-1.146c.009-8.814 7.156-15.956 15.971-15.956l303.341-.008V193.771c0-8.821 7.151-15.971 15.971-15.971z"/></svg><svg viewBox="0 0 1024 1024" id="add-profile" xmlns="http://www.w3.org/2000/svg"><path d="M512 177.809c8.821 0 15.971 7.151 15.971 15.971l-.008 303.341h303.356c8.415.003 15.309 6.513 15.922 14.772l.003.053.038 1.146c0 8.821-7.151 15.971-15.971 15.971l-303.349-.008v303.356c.005.147.008.32.008.494 0 8.821-7.151 15.971-15.971 15.971s-15.971-7.151-15.971-15.971c0-.174.003-.347.008-.519l-.001.025-.008-303.356H192.678c-8.415-.003-15.309-6.513-15.922-14.772l-.003-.053-.038-1.146c.009-8.814 7.156-15.956 15.971-15.956l303.341-.008V193.771c0-8.821 7.151-15.971 15.971-15.971z"/></svg><svg viewBox="0 0 1024 1024" id="add-profile" xmlns="http://www.w3.org/2000/svg"><path d="M512 177.809c8.821 0 15.971 7.151 15.971 15.971l-.008 303.341h303.356c8.415.003 15.309 6.513 15.922 14.772l.003.053.038 1.146c0 8.821-7.151 15.971-15.971 15.971l-303.349-.008v303.356c.005.147.008.32.008.494 0 8.821-7.151 15.971-15.971 15.971s-15.971-7.151-15.971-15.971c0-.174.003-.347.008-.519l-.001.025-.008-303.356H192.678c-8.415-.003-15.309-6.513-15.922-14.772l-.003-.053-.038-1.146c.009-8.814 7.156-15.956 15.971-15.956l303.341-.008V193.771c0-8.821 7.151-15.971 15.971-15.971z"/></svg><svg viewBox="0 0 1024 1024" id="alert" xmlns="http://www.w3.org/2000/svg"><path d="M491.776 116.416c5.85-3.212 12.818-5.101 20.228-5.101 16.155 0 30.213 8.981 37.453 22.223l.111.223 376.576 699.36c3.21 5.849 5.099 12.816 5.099 20.224 0 23.558-19.098 42.656-42.656 42.656H135.413c-23.558 0-42.656-19.098-42.656-42.656a42.464 42.464 0 0 1 5.211-20.446l-.111.222 376.576-699.36a42.705 42.705 0 0 1 17.344-17.344zM512 702.08c-17.673 0-32 14.327-32 32V736c0 17.673 14.327 32 32 32s32-14.327 32-32v-1.92c0-17.673-14.327-32-32-32zM512 352c-17.673 0-32 14.327-32 32v224c0 17.673 14.327 32 32 32s32-14.327 32-32V384c0-17.673-14.327-32-32-32z"/></svg></svg>