<!-- Generated by IcoMoon.io -->
<svg version="1.1" xmlns="http://www.w3.org/2000/svg" width="1024" height="1024" viewBox="0 0 1024 1024">
<title></title>
<g id="icomoon-ignore">
</g>
<path d="M485.452 121.363c111.698 0.017 202.242 90.57 202.242 202.271 0 56.552-23.209 107.684-60.62 144.391l-0.032 0.031c117.471 40.239 210.769 124.79 261.641 233.204l1.149 2.726c2.355 4.976 3.73 10.811 3.73 16.967 0 15.626-8.86 29.184-21.831 35.922l-0.225 0.106c-111.873 58.339-244.321 92.56-384.761 92.56-0.455 0-0.909 0-1.364-0.001h0.070c-136.007 0-267.525-32.040-386.056-92.6-13.187-6.847-22.041-20.4-22.041-36.021 0-6.143 1.369-11.967 3.819-17.181l-0.104 0.247c52.042-111.125 145.332-195.668 259.659-234.993l3.133-0.937c-37.443-36.738-60.652-87.87-60.652-144.422 0-111.701 90.543-202.255 202.241-202.271h0.002zM485.452 525.906c-0.044 0-0.096 0-0.148 0-131.852 0-247.332 70.096-311.21 175.055l-0.91 1.609c91.518 41.736 198.496 66.063 311.155 66.063 0.391 0 0.782 0 1.173-0.001h-0.061c109.146 0 214.975-22.736 312.226-66.062-64.777-106.568-180.251-176.664-312.096-176.664-0.046 0-0.092 0-0.137 0h0.008zM485.452 202.271c-67.026 0-121.363 54.336-121.363 121.363s54.336 121.363 121.363 121.363v0c67.026 0 121.363-54.336 121.363-121.363s-54.336-121.363-121.363-121.363v0z"></path>
</svg>
