<!-- Generated by IcoMoon.io -->
<svg version="1.1" xmlns="http://www.w3.org/2000/svg" width="1024" height="1024" viewBox="0 0 1024 1024">
<title></title>
<g id="icomoon-ignore">
</g>
<path d="M728.178 606.815c20.672 0.003 37.721 15.511 40.152 35.527l0.019 0.194 0.283 4.733v40.455h40.455c20.672 0.003 37.721 15.511 40.152 35.527l0.019 0.194 0.283 4.733c-0.003 20.672-15.511 37.721-35.527 40.152l-0.194 0.019-4.733 0.283h-40.455v40.455c-0.003 20.672-15.511 37.721-35.527 40.152l-0.194 0.019-4.733 0.283c-20.672-0.003-37.721-15.511-40.152-35.527l-0.019-0.194-0.283-4.733v-40.455h-40.455c-20.672-0.003-37.721-15.511-40.152-35.527l-0.019-0.194-0.283-4.733c0.003-20.672 15.511-37.721 35.527-40.152l0.194-0.019 4.733-0.283h40.455v-40.455c0-0.009 0-0.021 0-0.033 0-19.042 13.156-35.010 30.874-39.313l0.277-0.057 4.571-0.809 4.733-0.243zM485.452 121.363c111.698 0.017 202.242 90.57 202.242 202.271 0 56.552-23.209 107.684-60.62 144.391l-0.032 0.031c9.466 3.115 18.811 6.634 28.035 10.437 14.814 6.23 25.026 20.622 25.026 37.4 0 22.345-18.114 40.459-40.459 40.459-5.568 0-10.872-1.125-15.699-3.158l0.266 0.1c-40.877-17.321-88.412-27.388-138.299-27.388-0.161 0-0.323 0-0.485 0h0.025c-0.033 0-0.072 0-0.111 0-131.849 0-247.322 70.116-311.165 175.094l-0.91 1.611c91.494 41.71 198.44 66.022 311.064 66.022 0.394 0 0.79 0 1.184-0.001h-0.062c22.342 0 40.455 18.112 40.455 40.455s-18.112 40.455-40.455 40.455v0c-136.007 0-267.484-31.999-386.015-92.559-13.187-6.847-22.041-20.4-22.041-36.021 0-6.143 1.369-11.967 3.819-17.181l-0.104 0.247c52.026-111.148 145.322-195.708 259.66-235.034l3.132-0.937c-37.443-36.738-60.652-87.87-60.652-144.422 0-111.687 90.521-202.231 202.198-202.271h0.004zM485.452 202.271c-67.026 0-121.363 54.336-121.363 121.363s54.336 121.363 121.363 121.363v0c67.026 0 121.363-54.336 121.363-121.363s-54.336-121.363-121.363-121.363v0z"></path>
</svg>
