<!-- Generated by IcoMoon.io -->
<svg version="1.1" xmlns="http://www.w3.org/2000/svg" width="1024" height="1024" viewBox="0 0 1024 1024">
<title></title>
<g id="icomoon-ignore">
</g>
<path d="M491.776 116.416c5.85-3.212 12.818-5.101 20.228-5.101 16.155 0 30.213 8.981 37.453 22.223l0.111 0.223 376.576 699.36c3.21 5.849 5.099 12.816 5.099 20.224 0 23.558-19.098 42.656-42.656 42.656-0.004 0-0.008 0-0.012 0h-753.151c-0.003 0-0.007 0-0.011 0-23.558 0-42.656-19.098-42.656-42.656 0-7.408 1.889-14.375 5.211-20.446l-0.111 0.222 376.576-699.36c3.968-7.36 9.984-13.376 17.344-17.344zM512 702.080c-17.673 0-32 14.327-32 32v0 1.92c0 17.673 14.327 32 32 32s32-14.327 32-32v0-1.92c0-17.673-14.327-32-32-32v0zM512 352c-17.673 0-32 14.327-32 32v0 224c0 17.673 14.327 32 32 32s32-14.327 32-32v0-224c0-17.673-14.327-32-32-32v0z"></path>
</svg>
