<!-- Generated by IcoMoon.io -->
<svg version="1.1" xmlns="http://www.w3.org/2000/svg" width="1024" height="1024" viewBox="0 0 1024 1024">
<title></title>
<g id="icomoon-ignore">
</g>
<path d="M687.723 161.818v485.452c-0.001 22.342-18.112 40.454-40.455 40.454-3.491 0-6.879-0.442-10.111-1.273l0.281 0.062-273.35-68.327v190.904c-0.003 20.672-15.511 37.721-35.527 40.152l-0.194 0.019-4.733 0.283h-80.908c-0.004 0-0.009 0-0.013 0-16.115 0-30.028-9.422-36.533-23.057l-0.105-0.245-1.74-4.369-71.645-215.055h-51.781c-22.342 0-40.455-18.112-40.455-40.455v0-323.634c0-22.342 18.112-40.455 40.455-40.455v0h237.588l318.942-79.695c2.952-0.77 6.339-1.213 9.83-1.213 22.342 0 40.454 18.112 40.455 40.453v0zM283.181 606.815h-65.253l53.966 161.818h11.287v-161.818zM833.885 615.31l3.803 3.357 40.455 40.455c7.292 7.316 11.801 17.41 11.801 28.557 0 22.342-18.112 40.455-40.455 40.455-9.362 0-17.981-3.18-24.836-8.519l0.090 0.068-3.803-3.357-40.455-40.455c-7.292-7.316-11.801-17.41-11.801-28.557 0-22.342 18.112-40.455 40.455-40.455 9.362 0 17.981 3.18 24.836 8.519l-0.090-0.068zM606.815 213.599l-242.726 60.681v260.526l242.726 60.681v-381.888zM283.181 283.181h-161.818v242.726h161.818v-242.726zM849.541 364.089c22.323 0.026 40.409 18.128 40.409 40.455 0 20.658-15.485 37.7-35.481 40.151l-0.195 0.020-4.733 0.283h-40.455c-22.323-0.026-40.409-18.128-40.409-40.455 0-20.658 15.485-37.7 35.481-40.151l0.195-0.020 4.733-0.283h40.455zM881.338 146.444l-3.196 3.52-7.646-7.687c-0.192 9.371-3.714 17.884-9.425 24.44l0.039-0.046-3.196 3.52c-7.015 7.508-16.879 12.279-27.859 12.58l-0.054 0.001 7.687 7.687c-36.975 36.935-91.913-15.736-60.398-53.723l3.196-3.52 7.646 7.687c0.192-9.371 3.714-17.884 9.425-24.44l-0.039 0.046 3.196-3.52c7.015-7.508 16.879-12.279 27.859-12.58l0.054-0.001-7.687-7.687c36.975-36.935 91.913 15.736 60.398 53.723z"></path>
</svg>
